# Blender v2.79 (sub 0) OBJ File: ''
# www.blender.org
mtllib Master Emerald Piece.mtl
o Mesh_0130
v -0.187625 -0.064955 -0.106628
v -0.032535 -0.263729 -0.107856
v -0.108565 -0.263692 0.026839
v -0.003205 -0.462884 -0.002452
v -0.107295 -0.064899 0.181889
v -0.059365 0.036205 -0.204283
v -0.123115 0.155908 -0.070261
v -0.042635 0.185816 -0.144215
v -0.003205 0.313300 -0.002610
v -0.204925 0.036266 0.053608
v -0.144825 0.185850 0.036844
v 0.102165 -0.263706 -0.031826
v 0.100895 -0.064972 -0.186963
v -0.070885 0.155941 0.117335
v 0.026135 -0.263682 0.102874
v 0.052965 0.036293 0.199176
v 0.036225 0.185874 0.139044
v 0.181225 -0.064910 0.101568
v 0.116715 0.155938 0.065102
v 0.198525 0.036246 -0.058720
v 0.138425 0.185840 -0.042015
v 0.064485 0.155895 -0.122497
v -0.187625 -0.064955 -0.106628
v -0.059365 0.036205 -0.204283
v -0.032535 -0.263729 -0.107856
v 0.181225 -0.064910 0.101568
v -0.003205 -0.462884 -0.002452
v 0.102165 -0.263706 -0.031826
v -0.107295 -0.064899 0.181889
v 0.026135 -0.263682 0.102874
v 0.100895 -0.064972 -0.186963
v 0.116715 0.155938 0.065102
v 0.036225 0.185874 0.139044
v 0.052965 0.036293 0.199176
v -0.123115 0.155908 -0.070261
v -0.144825 0.185850 0.036844
v -0.003205 0.313300 -0.002610
v -0.204925 0.036266 0.053608
v -0.108565 -0.263692 0.026839
v 0.198525 0.036246 -0.058720
v 0.064485 0.155895 -0.122497
v 0.138425 0.185840 -0.042015
v -0.042635 0.185816 -0.144215
v -0.070885 0.155941 0.117335
v 0.103195 -0.265533 -0.032117
v -0.003205 -0.466659 -0.002456
v 0.101915 -0.064853 -0.188764
v 0.117895 0.158218 0.065765
v 0.183035 -0.064788 0.102582
v 0.200505 0.037350 -0.059270
v -0.109595 -0.265523 0.027131
v -0.189435 -0.064835 -0.107650
v -0.032825 -0.265551 -0.108891
v 0.139815 0.188414 -0.042401
v 0.065145 0.158179 -0.123673
v -0.003205 0.317133 -0.002615
v -0.206905 0.037381 0.054156
v -0.146215 0.188429 0.037230
v -0.124295 0.158187 -0.070930
v -0.071545 0.158226 0.118508
v 0.036615 0.188452 0.140425
v 0.053515 0.037402 0.201150
v 0.026425 -0.265514 0.103901
vt 0.000000 0.000000
vt 0.000000 0.000000
vt 0.000000 0.000000
vt 0.000000 0.000000
vt 0.000000 0.000000
vt 0.000000 0.000000
vt 0.000000 0.000000
vt 0.000000 0.000000
vt 0.000000 0.000000
vt 0.000000 0.000000
vt 0.000000 0.000000
vt 0.000000 0.000000
vt 0.000000 0.000000
vt 0.000000 0.000000
vt 0.000000 0.000000
vt 0.000000 0.000000
vt 0.000000 0.000000
vt 0.000000 0.000000
vt 0.000000 0.000000
vt 0.000000 0.000000
vt 0.000000 0.000000
vt 0.000000 0.000000
vt 0.000000 0.000000
vt 0.000000 0.000000
vt 0.000000 0.000000
vt 0.000000 0.000000
vt 0.000000 0.000000
vt 0.000000 0.000000
vt 0.000000 0.000000
vt 0.000000 0.000000
vt 0.000000 0.000000
vt 0.000000 0.000000
vt 0.000000 0.000000
vt 0.000000 0.000000
vt 0.000000 0.000000
vt 0.000000 0.000000
vt 0.000000 0.000000
vt 0.000000 0.000000
vt 0.000000 0.000000
vt 0.000000 0.000000
vt 0.000000 0.000000
vt 0.000000 0.000000
vt 0.000000 0.000000
vt 0.000000 0.000000
vt 0.000000 0.000000
vt 0.000000 0.000000
vt 0.000000 0.000000
vt 0.000000 0.000000
vt 0.000000 0.000000
vt 0.000000 0.000000
vt 0.000000 0.000000
vt 0.000000 0.000000
vt 0.000000 0.000000
vt 0.000000 0.000000
vt 0.000000 0.000000
vt 0.000000 0.000000
vt 0.000000 0.000000
vt 0.000000 0.000000
vt 0.000000 0.000000
vt 0.000000 0.000000
vt 0.000000 0.000000
vt 0.000000 0.000000
vt 0.000000 0.000000
vn -0.7214 -0.5603 -0.4070
vn -0.8444 -0.5296 0.0806
vn -0.8118 -0.3620 -0.4581
vn -0.8849 -0.4511 -0.1158
vn -0.6832 -0.4464 0.5779
vn -0.7190 0.3122 -0.6209
vn -0.6276 0.6574 -0.4171
vn -0.9453 -0.3121 0.0951
vn -0.9023 0.3316 -0.2756
vn 0.6832 -0.4466 -0.5777
vn -0.4170 0.6576 0.6274
vn 0.0950 -0.3120 0.9453
vn -0.2756 0.3318 0.9022
vn -0.4173 0.1777 0.8912
vn -0.3918 0.2076 0.8963
vn -0.4897 0.0865 0.8676
vn 0.5779 -0.4464 0.6833
vn 0.7190 0.3125 0.6208
vn 0.9453 -0.3122 -0.0950
vn 0.9023 0.3317 0.2755
vn 0.8530 0.4316 0.2934
vn 0.6973 0.6413 0.3203
vn 0.5778 0.7483 0.3260
vn 0.2755 0.3315 -0.9023
vn 0.6208 0.3122 -0.7191
vn 0.4170 0.6574 -0.6277
vn -0.0951 -0.3124 -0.9452
vn -0.4071 -0.3124 -0.8583
vn 0.8835 -0.4465 0.1418
vn -0.1417 -0.4463 0.8836
vn 0.1416 -0.4467 -0.8834
vn 0.7021 0.3318 0.6300
vn -0.6813 0.6574 -0.3219
vn -0.4160 0.5329 0.7369
vn -0.8584 -0.3121 0.4072
vn 0.9031 0.3124 0.2947
vn 0.6301 0.3315 -0.7022
vn 0.2947 0.3122 -0.9032
vn 0.4071 -0.3120 0.8584
vn -0.7022 0.3315 -0.6301
vn 0.6748 0.6321 0.3808
vn 0.3929 0.7354 0.5522
vn 0.1085 0.7539 0.6480
vn -0.3218 0.6576 0.6811
vn -0.9031 0.3123 -0.2948
vn -0.6301 0.3318 0.7021
vn 0.8584 -0.3123 -0.4070
vn 0.3218 0.6574 -0.6814
vn 0.9031 0.3124 0.2946
vn -0.3218 0.6576 0.6812
usemtl Tex_0034_0_png
s 1
f 1/1/1 2/2/1 3/3/2
f 2/2/3 4/4/4 3/3/2
f 3/3/2 4/4/4 5/5/5
f 6/6/6 1/1/6 7/7/6
f 8/8/7 7/7/7 9/9/7
f 3/3/8 10/10/8 1/1/8
f 10/10/9 11/11/9 7/7/9
f 12/12/10 4/4/10 13/13/10
f 11/11/11 14/14/11 9/9/11
f 15/15/12 16/16/12 5/5/12
f 17/17/13 14/14/14 16/16/15
f 14/14/14 10/10/16 16/16/15
f 15/15/17 4/4/17 18/18/17
f 16/16/18 18/18/18 19/19/18
f 12/12/19 20/20/19 18/18/19
f 20/20/20 21/21/21 19/19/22
f 21/21/21 17/17/23 19/19/22
f 6/6/24 8/8/24 22/22/24
f 20/20/25 13/13/25 22/22/25
f 21/21/26 22/22/26 9/9/26
f 2/2/27 6/6/27 13/13/27
f 23/23/28 24/24/28 25/25/28
f 26/26/29 27/27/29 28/28/29
f 29/29/30 27/27/30 30/30/30
f 31/31/31 27/27/31 25/25/31
f 32/32/32 33/33/32 34/34/32
f 35/35/33 36/36/33 37/37/33
f 34/34/34 38/38/34 29/29/34
f 38/38/35 39/39/35 29/29/35
f 32/32/36 26/26/36 40/40/36
f 41/41/37 42/42/37 40/40/37
f 41/41/38 31/31/38 24/24/38
f 26/26/39 34/34/39 30/30/39
f 35/35/40 43/43/40 24/24/40
f 42/42/41 37/37/42 33/33/43
f 37/37/42 44/44/44 33/33/43
f 35/35/45 23/23/45 38/38/45
f 44/44/46 36/36/46 38/38/46
f 31/31/47 40/40/47 28/28/47
f 41/41/48 43/43/48 37/37/48
f 45/45/10 46/46/10 47/47/10
f 48/48/49 49/49/49 50/50/49
f 51/51/1 52/52/1 53/53/1
f 54/54/26 55/55/26 56/56/26
f 57/57/9 58/58/9 59/59/9
f 60/60/50 61/61/50 56/56/50
f 49/49/39 62/62/39 63/63/39
